<svg width="50" height="50" viewBox="0 0 50 50" fill="none" xmlns="http://www.w3.org/2000/svg">
<path d="M6.25 6.25H43.75V43.75H6.25V6.25ZM40.6771 34.8063C40.4042 33.0958 39.2896 31.6583 35.9854 30.3167C34.8354 29.7771 33.5583 29.4042 33.175 28.5375C33.0333 28.0208 33.0125 27.7417 33.1042 27.4354C33.3396 26.4271 34.5354 26.125 35.4729 26.4042C36.0833 26.5917 36.6458 27.0604 36.9979 27.8125C38.6125 26.7562 38.6125 26.7562 39.7396 26.0542C39.3167 25.4 39.1062 25.1146 38.825 24.8333C37.8396 23.7333 36.5271 23.1708 34.3958 23.2188L33.2958 23.3583C32.2396 23.6167 31.2312 24.1812 30.6229 24.9292C28.8417 26.9458 29.3563 30.4604 31.5125 31.9167C33.6437 33.5104 36.7646 33.8604 37.1625 35.3604C37.5375 37.1896 35.8042 37.775 34.0896 37.5646C32.825 37.2812 32.1208 36.65 31.3479 35.4771L28.4896 37.1187C28.8167 37.8667 29.1917 38.1958 29.7542 38.8521C32.4729 41.5937 39.2708 41.4542 40.4896 37.2812C40.5333 37.1417 40.8646 36.1813 40.6062 34.7042L40.6771 34.8063ZM26.6417 23.4854H23.1292C23.1292 26.5125 23.1146 29.5229 23.1146 32.5562C23.1146 34.4812 23.2125 36.2479 22.8979 36.7917C22.3833 37.8687 21.0521 37.7312 20.45 37.5396C19.8312 37.2354 19.5167 36.8125 19.1521 36.2042C19.0542 36.0417 18.9812 35.9 18.9542 35.9L16.1042 37.6583C16.5812 38.6437 17.2771 39.4896 18.175 40.0271C19.5104 40.825 21.3042 41.0833 23.1833 40.6625C24.4083 40.3083 25.4646 39.5812 26.0125 38.4562C26.8125 37.0042 26.6417 35.2208 26.6354 33.2292C26.6521 30.0187 26.6354 26.8062 26.6354 23.5729L26.6417 23.4854Z" fill="#242423"/>
</svg>
