<svg width="50" height="50" viewBox="0 0 50 50" fill="none" xmlns="http://www.w3.org/2000/svg">
<path d="M43.75 43.75H35.4167V29.6875C35.4167 27.4821 32.9419 25.6371 30.7365 25.6371C28.531 25.6371 27.0833 27.4821 27.0833 29.6875V43.75H18.75V18.75H27.0833V22.9167C28.4631 20.6845 31.9925 19.2443 34.4271 19.2443C39.576 19.2443 43.75 23.4971 43.75 28.6458V43.75ZM14.5833 43.75H6.24998V18.75H14.5833V43.75ZM10.4167 6.25C12.7179 6.25 14.5833 8.11548 14.5833 10.4167C14.5833 12.7179 12.7179 14.5833 10.4167 14.5833C8.11548 14.5833 6.25 12.7179 6.25 10.4167C6.25 8.11548 8.11548 6.25 10.4167 6.25Z" fill="#242423"/>
</svg>
