<svg width="50" height="50" viewBox="0 0 50 50" fill="none" xmlns="http://www.w3.org/2000/svg">
<path d="M46.79 12.5258C45.1867 13.2369 43.4633 13.7175 41.655 13.9336C43.5006 12.8271 44.9185 11.075 45.586 8.98704C43.8583 10.0117 41.945 10.7558 39.9083 11.1567C38.2775 9.41899 35.954 8.33333 33.3823 8.33333C28.4446 8.33333 24.441 12.3364 24.441 17.2741C24.441 17.9748 24.5202 18.6572 24.6727 19.3117C17.2419 18.9387 10.6537 15.3792 6.24396 9.96981C5.47429 11.2903 5.03337 12.8262 5.03337 14.4648C5.03337 17.5667 6.61177 20.3034 9.01091 21.9069C7.54541 21.8602 6.1666 21.4581 4.96125 20.7885C4.96039 20.8258 4.96039 20.8631 4.96039 20.9008C4.96039 25.2329 8.04237 28.8465 12.1325 29.6679C11.3823 29.8723 10.5924 29.9817 9.77698 29.9817C9.20085 29.9817 8.64075 29.9254 8.09473 29.8212C9.23254 33.3731 12.5345 35.9583 16.447 36.0302C13.387 38.4285 9.53183 39.8579 5.34279 39.8579C4.6211 39.8579 3.90942 39.8154 3.20996 39.7327C7.16675 42.2696 11.8665 43.75 16.9156 43.75C33.3612 43.75 42.3546 30.126 42.3546 18.3108C42.3546 17.9232 42.3458 17.5376 42.3285 17.1541C44.0756 15.8935 45.5915 14.3188 46.79 12.5258Z" fill="#242423"/>
</svg>
