<svg width="42" height="41" viewBox="0 0 42 41" fill="none" xmlns="http://www.w3.org/2000/svg">
<path fill-rule="evenodd" clip-rule="evenodd" d="M21.0542 0.166672C9.57709 0.166672 0.275002 9.46875 0.275002 20.9458C0.275002 30.125 6.22709 37.9146 14.4854 40.6646C15.525 40.8521 15.9 40.2125 15.9 39.6625C15.9 39.1688 15.8833 37.8604 15.8771 36.1292C10.0958 37.3833 8.875 33.3417 8.875 33.3417C7.93333 30.9417 6.56875 30.3021 6.56875 30.3021C4.68333 29.0125 6.7125 29.0417 6.7125 29.0417C8.8 29.1875 9.89375 31.1833 9.89375 31.1833C11.7479 34.3583 14.7604 33.4417 15.9396 32.9104C16.1292 31.5667 16.6708 30.65 17.2625 30.1313C12.65 29.6083 7.8 27.825 7.8 19.8604C7.8 17.5958 8.61042 15.7375 9.93334 14.2875C9.72292 13.7604 9.00417 11.6458 10.1396 8.78751C10.1396 8.78751 11.8833 8.22709 15.8521 10.9146C17.5146 10.4542 19.2875 10.2229 21.0521 10.2146C22.8208 10.2229 24.5958 10.4542 26.2521 10.9146C30.2229 8.225 31.9646 8.78751 31.9646 8.78751C33.1 11.6458 32.3875 13.7604 32.1708 14.2875C33.5042 15.7375 34.3042 17.5938 34.3042 19.8604C34.3042 27.8458 29.45 29.6 24.8208 30.1146C25.5604 30.7563 26.2271 32.0229 26.2271 33.9604C26.2271 36.7396 26.2021 38.9813 26.2021 39.6625C26.2021 40.2188 26.5729 40.8646 27.6333 40.6604C35.8875 37.9063 41.8333 30.1229 41.8333 20.9458C41.8333 9.46875 32.5313 0.166672 21.0542 0.166672Z" fill="#242423"/>
</svg>
